<?xml version="1.0" standalone="no"?>
<!DOCTYPE svg PUBLIC "-//W3C//DTD SVG 20010904//EN"
 "http://www.w3.org/TR/2001/REC-SVG-20010904/DTD/svg10.dtd">
<svg version="1.0" xmlns="http://www.w3.org/2000/svg"
 width="400.000000pt" height="400.000000pt" viewBox="0 0 400.000000 400.000000"
 preserveAspectRatio="xMidYMid meet">

<g transform="translate(0.000000,400.000000) scale(0.100000,-0.100000)"
fill="#000000" stroke="none">
<path d="M1606 3649 c-25 -105 -46 -197 -46 -205 0 -10 14 -14 58 -14 l59 0
12 56 c7 31 17 54 24 51 6 -2 17 -27 25 -55 l15 -52 71 0 c39 -1 97 -7 129
-15 56 -13 58 -13 72 9 14 21 19 22 65 13 46 -9 49 -11 44 -36 -6 -26 -3 -28
51 -40 31 -7 60 -9 65 -4 10 11 55 381 47 389 -3 4 -31 12 -62 19 l-56 13
-142 -168 c-141 -168 -142 -168 -154 -142 -27 60 -26 88 2 116 58 58 75 167
31 211 -26 26 -51 32 -178 39 l-87 5 -45 -190z m212 50 c5 -25 -25 -49 -60
-49 -27 0 -30 3 -24 23 3 12 6 28 6 35 0 20 74 11 78 -9z m346 -137 c-6 -30
-26 -42 -38 -23 -6 9 33 65 40 58 2 -2 1 -18 -2 -35z"/>
<path d="M1285 3796 l-60 -12 -6 -204 c-3 -113 -5 -206 -4 -208 6 -10 189 39
227 61 66 38 100 110 101 209 1 153 -64 191 -258 154z m126 -117 c18 -18 21
-30 16 -72 -5 -55 -39 -97 -79 -97 -20 0 -20 3 -14 87 4 48 10 91 12 95 10 15
44 8 65 -13z"/>
<path d="M741 3564 c-24 -64 -40 -118 -38 -120 9 -9 129 20 134 33 6 16 -36
203 -46 203 -5 0 -27 -52 -50 -116z"/>
<path d="M2514 3616 c-59 -19 -100 -53 -145 -120 -42 -63 -51 -118 -26 -163
30 -54 136 -103 222 -103 39 0 43 3 102 83 l62 82 -47 24 c-109 56 -107 56
-142 8 -30 -41 -30 -42 -10 -51 25 -11 26 -36 1 -36 -28 0 -71 38 -71 63 0 33
44 92 80 107 41 17 93 2 154 -44 l44 -34 31 43 c17 24 31 45 31 48 0 15 -114
79 -165 92 -69 18 -68 18 -121 1z"/>
<path d="M762 3430 c-40 -9 -74 -19 -77 -21 -6 -7 -65 -172 -65 -185 0 -7 47
6 122 33 68 25 125 46 127 48 9 9 -12 145 -23 144 -6 -1 -44 -9 -84 -19z"/>
<path d="M2847 3376 c-81 -29 -149 -92 -167 -156 -29 -102 110 -224 236 -206
53 7 111 35 159 78 51 44 68 82 62 137 -4 39 -12 53 -55 91 -72 67 -151 85
-235 56z m143 -116 c36 -36 18 -78 -50 -119 -44 -26 -70 -26 -104 0 -34 26
-33 59 2 91 57 53 116 64 152 28z"/>
<path d="M1555 3350 c-160 -11 -355 -52 -355 -74 0 -6 -7 -126 -15 -266 -8
-140 -13 -255 -11 -257 1 -1 39 13 83 33 255 110 554 123 849 38 108 -32 189
-67 234 -103 35 -28 45 -30 350 -65 173 -20 325 -39 338 -41 31 -7 28 8 -18
75 -135 198 -434 440 -675 544 -214 93 -498 135 -780 116z"/>
<path d="M775 3244 c-49 -19 -108 -41 -131 -49 -38 -14 -42 -20 -62 -84 -12
-38 -20 -75 -17 -83 3 -8 -16 -71 -43 -139 -47 -117 -68 -210 -63 -271 2 -21
-14 -47 -67 -110 -90 -106 -172 -185 -197 -190 -11 -2 -20 -11 -20 -22 0 -21
85 -126 99 -122 6 1 35 -13 65 -31 48 -29 81 -41 81 -29 0 2 -7 20 -15 40 -14
33 -14 37 0 42 8 4 15 12 15 20 0 8 10 14 24 14 18 0 25 6 28 23 2 16 11 23
31 25 23 3 27 7 22 23 -6 18 -3 20 29 14 l35 -7 -6 35 c-7 45 26 97 62 97 18
0 22 4 18 20 -7 25 24 27 67 5 28 -14 35 -29 31 -62 -1 -7 3 -21 8 -31 6 -12
7 -22 1 -28 -9 -9 1 -55 21 -96 6 -12 -2 -23 -33 -44 -34 -24 -37 -29 -21 -35
10 -4 29 -8 41 -8 13 -1 39 -8 58 -17 19 -9 40 -14 47 -11 8 3 43 74 80 159
58 134 67 163 73 237 6 74 10 87 38 119 l30 35 4 285 c1 157 0 292 -2 298 -4
9 -33 0 -103 -33 -54 -25 -99 -49 -101 -54 -6 -16 -19 -10 -19 9 1 53 -4 92
-10 91 -5 0 -48 -16 -98 -35z m-75 -412 c0 -34 -5 -42 -51 -76 -28 -21 -53
-36 -55 -33 -2 2 5 30 17 61 15 37 31 62 48 71 38 21 41 19 41 -23z"/>
<path d="M3090 3023 c-96 -42 -177 -78 -179 -79 -5 -4 37 -70 53 -83 10 -8 35
-1 102 28 49 21 91 37 93 35 2 -2 -24 -38 -58 -80 -33 -42 -61 -80 -61 -85 0
-15 54 -88 66 -89 9 0 63 23 332 141 l44 19 -33 45 c-18 25 -34 45 -37 45 -2
0 -40 -16 -83 -35 -44 -19 -82 -35 -85 -35 -3 0 21 34 54 77 l60 76 -35 49
c-19 26 -40 48 -46 47 -7 0 -91 -34 -187 -76z"/>
<path d="M2430 2631 c0 -4 18 -25 40 -46 82 -80 176 -237 220 -365 34 -99 39
-289 12 -397 -43 -171 -128 -325 -261 -473 l-64 -72 74 6 c41 3 184 11 319 17
l245 10 38 42 c50 56 112 183 137 282 28 108 43 263 35 360 -20 253 -105 539
-168 565 -12 5 -150 23 -307 40 -157 17 -293 32 -302 34 -10 2 -18 1 -18 -3z"/>
<path d="M3387 2536 c-103 -29 -189 -55 -189 -59 -1 -4 4 -32 11 -61 l12 -54
85 -13 c47 -7 87 -16 90 -21 3 -4 -1 -8 -9 -8 -8 0 -44 -9 -80 -20 l-65 -20
13 -52 c8 -28 18 -54 22 -58 7 -7 425 -81 430 -76 1 1 -5 29 -14 63 l-15 61
-77 8 c-101 9 -128 19 -79 28 20 4 59 13 86 21 l49 15 -10 46 c-13 54 -19 57
-132 76 l-80 13 88 19 c48 10 87 23 87 28 0 11 -30 118 -33 117 -1 0 -87 -24
-190 -53z"/>
<path d="M528 1910 c-42 -223 -75 -406 -74 -408 2 -1 19 20 38 48 l36 51 25
-31 c14 -17 69 -101 121 -188 171 -285 288 -433 423 -543 68 -54 230 -146 240
-135 2 2 -20 108 -49 235 l-53 233 -32 13 c-56 24 -155 97 -224 165 -199 199
-318 490 -366 900 -8 64 -9 59 -85 -340z"/>
<path d="M3287 2019 c-4 -29 -4 -55 -2 -60 3 -4 20 -10 38 -14 87 -18 91 -36
12 -54 l-55 -12 0 -70 c0 -38 2 -69 5 -69 3 0 32 8 65 17 l60 16 28 -26 c37
-35 92 -57 145 -57 78 0 106 54 107 212 0 65 -3 77 -17 82 -29 9 -363 86 -372
86 -4 0 -11 -23 -14 -51z m286 -138 c14 -14 -1 -61 -20 -68 -21 -8 -53 31 -53
64 0 23 3 25 32 19 18 -3 36 -10 41 -15z"/>
<path d="M3260 1664 c-7 -30 -10 -57 -8 -59 1 -1 86 -38 187 -80 133 -56 186
-74 191 -65 8 12 22 101 18 105 -5 4 -368 155 -372 155 -3 0 -10 -25 -16 -56z"/>
<path d="M3241 1525 c-29 -34 -61 -117 -61 -159 1 -40 37 -103 72 -124 56 -35
91 -29 147 23 26 25 51 45 56 45 13 0 -6 -54 -31 -87 -13 -17 -24 -34 -24 -37
0 -3 20 -19 44 -35 l43 -30 21 22 c32 34 62 107 62 152 0 58 -29 106 -82 133
-55 28 -83 20 -144 -40 -25 -23 -44 -36 -48 -29 -9 14 15 69 48 108 l26 31
-49 31 -50 30 -30 -34z"/>
<path d="M2620 1225 c-353 -20 -355 -20 -390 -47 -136 -102 -362 -152 -577
-128 -90 10 -267 46 -317 66 -17 7 -18 4 -12 -32 10 -54 76 -365 82 -386 10
-32 185 -75 348 -85 234 -14 550 64 756 187 156 93 485 400 469 437 -2 5 -164
-1 -359 -12z"/>
<path d="M3068 1166 c-16 -24 -28 -48 -28 -53 0 -6 45 -52 100 -103 55 -50
100 -97 100 -104 0 -6 -11 -27 -24 -46 l-24 -35 41 -42 41 -42 83 127 c45 70
83 132 83 137 0 6 -17 28 -38 48 l-37 37 -25 -40 c-14 -22 -27 -40 -30 -40 -3
0 -50 45 -105 100 -55 55 -102 100 -105 100 -3 0 -17 -20 -32 -44z"/>
<path d="M2888 938 c-92 -89 -117 -136 -103 -199 9 -42 52 -89 81 -89 21 0 24
-5 24 -38 0 -35 20 -77 44 -94 17 -12 69 -9 92 5 37 21 166 145 163 155 -9 22
-205 342 -210 342 -3 0 -44 -37 -91 -82z m75 -112 c7 -17 -47 -71 -62 -62 -17
11 -13 25 14 51 27 28 40 31 48 11z m75 -153 c-6 -8 -20 -19 -30 -24 -30 -16
-35 17 -7 47 22 23 24 24 36 8 10 -13 10 -21 1 -31z"/>
<path d="M2695 770 c-43 -25 -49 -33 -47 -57 3 -25 -3 -31 -42 -50 l-44 -22
-14 21 -15 22 -49 -28 c-27 -16 -76 -36 -109 -45 l-60 -17 3 -104 c3 -121 2
-121 -69 8 -22 39 -43 72 -47 72 -4 0 -29 -6 -57 -13 l-49 -13 3 -205 c1 -112
4 -205 5 -206 1 -1 24 4 51 11 l50 12 5 95 5 94 48 -83 c26 -45 49 -82 50 -82
1 1 27 7 57 14 l55 13 0 201 c0 111 2 202 5 201 3 0 46 -63 95 -139 50 -77 98
-150 107 -162 l17 -23 55 30 56 30 0 228 c0 125 -3 227 -7 227 -5 0 -30 -14
-58 -30z m-35 -260 l0 -35 -20 33 c-17 27 -18 37 -9 48 17 20 29 1 29 -46z"/>
<path d="M1470 573 c-46 -24 -80 -76 -80 -124 0 -39 9 -50 85 -113 l30 -25
-30 -1 c-16 0 -49 11 -73 25 l-43 24 -23 -52 -23 -52 36 -22 c53 -34 129 -47
176 -31 47 16 94 72 102 122 6 36 3 40 -51 90 -31 29 -56 56 -56 59 0 20 70 0
122 -35 l27 -19 26 50 c14 28 25 53 25 55 0 3 -20 17 -45 32 -61 35 -155 43
-205 17z"/>
<path d="M1819 512 c-47 -24 -58 -37 -88 -94 -26 -52 -34 -80 -35 -126 -2
-114 36 -144 192 -150 56 -2 102 -2 102 0 0 4 64 285 85 376 5 22 4 22 -99 22
-94 0 -109 -3 -157 -28z m97 -172 c-17 -78 -23 -90 -41 -90 -29 0 -56 21 -57
45 -5 74 36 135 92 135 l27 0 -21 -90z"/>
</g>
</svg>
